<?xml version="1.0" standalone="no"?>
<!DOCTYPE svg PUBLIC "-//W3C//DTD SVG 20010904//EN"
 "http://www.w3.org/TR/2001/REC-SVG-20010904/DTD/svg10.dtd">
<svg version="1.0" xmlns="http://www.w3.org/2000/svg"
 width="1592.000000pt" height="1197.000000pt" viewBox="0 0 1592.000000 1197.000000"
 preserveAspectRatio="xMidYMid meet">

<g transform="translate(0.000000,1197.000000) scale(0.100000,-0.100000)"
fill="#000000" stroke="none">
<path d="M7848 9178 c-380 -344 -799 -621 -1243 -823 -632 -288 -1296 -429
-1994 -424 -187 1 -255 -2 -261 -10 -9 -15 -17 -154 -26 -428 l-7 -203 -2052
0 c-1630 0 -2055 -3 -2062 -12 -33 -43 -73 -288 -73 -450 0 -485 258 -948 670
-1202 l73 -45 2 -213 c2 -175 6 -228 23 -298 62 -260 185 -495 355 -676 115
-123 288 -249 435 -316 60 -27 62 -30 63 -66 0 -20 2 -46 4 -57 1 -11 6 -58 9
-105 17 -228 109 -482 253 -698 76 -115 271 -310 388 -389 111 -75 247 -144
368 -186 l92 -32 1219 -5 1219 -5 91 -141 c268 -418 525 -734 895 -1105 330
-329 595 -550 946 -788 271 -184 674 -421 714 -421 39 0 424 223 671 388 745
499 1368 1131 1865 1891 l119 181 1204 0 1204 0 105 35 c385 129 694 398 872
760 96 194 143 377 157 605 l7 109 76 36 c277 131 531 387 666 669 100 209
137 393 133 648 l-3 177 63 38 c105 64 179 123 271 215 190 190 319 425 383
698 25 109 36 384 19 500 -14 96 -48 230 -63 247 -8 10 -423 13 -2058 13
l-2048 0 -5 38 c-2 20 -5 93 -6 162 -3 183 -19 422 -28 431 -5 5 -155 10 -333
13 -219 2 -367 9 -455 19 -624 78 -1062 206 -1590 461 -402 195 -765 443
-1137 779 -42 37 -80 67 -87 67 -6 0 -52 -37 -103 -82z m183 -86 c600 -546
1376 -949 2159 -1122 374 -83 703 -120 1066 -120 l232 0 6 -167 c4 -93 9 -231
11 -307 3 -80 10 -145 16 -153 10 -11 359 -13 2064 -13 l2053 0 11 -32 c41
-128 54 -412 26 -574 -35 -196 -130 -415 -250 -576 -111 -147 -277 -291 -430
-372 -57 -31 -65 -44 -54 -100 16 -84 10 -330 -11 -439 -82 -425 -364 -788
-745 -962 -44 -20 -87 -40 -95 -44 -12 -6 -16 -37 -21 -138 -4 -72 -17 -180
-28 -242 -97 -503 -460 -917 -949 -1081 l-90 -30 -1220 0 c-1000 0 -1222 -2
-1231 -13 -6 -8 -47 -71 -92 -142 -149 -239 -358 -520 -564 -761 -130 -154
-518 -544 -665 -670 -323 -278 -648 -510 -1002 -717 -200 -117 -266 -150 -292
-143 -11 3 -100 50 -196 105 -909 518 -1656 1217 -2227 2081 -67 102 -134 202
-148 223 l-25 37 -1219 0 -1220 0 -93 31 c-210 70 -433 211 -579 367 -249 266
-381 586 -393 953 -3 84 -9 125 -18 134 -7 6 -44 24 -81 40 -205 84 -428 273
-563 476 -95 144 -172 331 -205 504 -14 70 -19 336 -9 444 l5 55 -73 40 c-286
159 -514 437 -616 750 -43 131 -57 216 -63 376 -5 152 6 263 38 383 l10 37
2054 0 c1754 0 2056 2 2068 14 11 11 15 69 21 262 4 136 9 273 13 306 l6 58
226 0 c527 0 1118 99 1575 265 638 231 1197 564 1666 994 30 27 58 50 61 51 3
0 39 -30 80 -68z"/>
<path d="M7880 8804 c-246 -209 -619 -461 -880 -593 -47 -24 -89 -47 -95 -51
-20 -14 -243 -114 -380 -170 -275 -113 -673 -228 -980 -285 -207 -38 -442 -64
-690 -76 -121 -6 -221 -12 -222 -13 -1 -1 -5 -229 -9 -506 -7 -549 12 -1311
42 -1670 47 -559 190 -1180 398 -1727 53 -140 194 -468 225 -523 4 -8 47 -89
96 -179 107 -201 255 -447 362 -601 44 -63 95 -137 114 -165 19 -27 36 -52 39
-55 3 -3 57 -70 120 -150 63 -80 117 -147 120 -150 48 -47 248 -279 243 -284
-4 -3 0 -6 7 -6 7 0 86 -71 174 -158 355 -348 753 -652 1196 -915 213 -126
179 -121 317 -41 755 437 1388 996 1909 1687 575 762 979 1671 1158 2607 74
384 102 652 116 1109 5 174 12 361 15 416 7 147 7 734 -1 1045 l-7 270 -31 0
c-110 0 -437 23 -576 40 -594 73 -1125 234 -1670 506 -319 160 -649 374 -920
598 -63 53 -117 95 -120 95 -3 0 -34 -25 -70 -55z m187 -641 c590 -420 1300
-735 1998 -887 164 -36 446 -84 565 -96 58 -5 120 -13 139 -16 l34 -5 -6 -452
c-9 -677 -33 -1175 -72 -1480 -137 -1077 -568 -2086 -1259 -2942 -244 -302
-589 -644 -883 -875 -43 -34 -87 -69 -97 -77 -82 -67 -413 -293 -524 -357 -14
-9 -35 3 -237 137 -540 359 -1026 818 -1427 1348 -654 864 -1060 1935 -1147
3024 -20 246 -42 821 -48 1247 l-5 427 33 5 c19 3 81 11 139 16 397 40 909
164 1320 320 423 160 864 394 1229 652 69 48 128 88 132 88 5 0 57 -34 116
-77z"/>
<path d="M5825 6708 c-28 -268 -34 -401 -29 -698 3 -173 7 -331 9 -350 5 -59
35 -333 39 -360 17 -117 73 -395 106 -530 22 -90 42 -171 44 -180 1 -8 26 -89
55 -180 73 -229 185 -516 275 -702 41 -87 72 -158 69 -158 -3 0 1 -8 9 -17 8
-10 50 -83 93 -163 159 -293 386 -621 624 -902 68 -82 126 -147 127 -145 4 4
278 538 512 997 102 201 186 366 187 368 3 4 104 -190 441 -847 l268 -524 25
30 c252 294 383 466 535 703 54 85 103 157 107 158 5 2 9 8 9 14 0 6 29 63 64
127 102 186 202 391 286 586 84 195 203 558 265 810 80 325 146 754 156 1020
13 333 -10 977 -36 1003 -3 3 -143 -11 -312 -32 -404 -49 -385 -45 -379 -65
12 -39 37 -427 36 -564 -2 -351 -33 -654 -101 -992 -36 -180 -119 -501 -137
-529 -3 -6 -7 -18 -9 -26 -3 -21 -109 -313 -122 -336 -5 -11 -40 -88 -77 -172
-37 -85 -74 -160 -81 -168 -8 -8 -12 -14 -8 -14 4 0 -7 -24 -23 -52 -17 -29
-43 -77 -58 -106 -15 -28 -31 -49 -35 -45 -4 5 -186 358 -405 786 -219 427
-403 776 -407 774 -5 -1 -188 -352 -406 -779 -218 -427 -399 -779 -402 -782
-7 -7 -69 106 -149 269 -328 674 -500 1421 -500 2175 0 142 23 504 35 558 3
12 3 22 0 22 -3 0 -152 18 -330 40 -178 22 -333 40 -344 40 -16 0 -20 -10 -26
-62z"/>
<path d="M444 6979 c-14 -24 -8 -263 10 -352 70 -360 315 -670 645 -814 l76
-33 1609 0 1609 0 -6 123 c-4 67 -9 316 -12 552 -3 237 -8 454 -11 483 l-5 52
-1954 0 c-1460 0 -1956 -3 -1961 -11z"/>
<path d="M11535 6978 c-2 -7 -6 -213 -9 -458 -3 -245 -9 -511 -13 -592 l-6
-148 1609 0 1609 0 77 34 c127 55 226 123 329 226 168 166 264 341 316 573 16
75 24 327 11 360 -7 16 -110 17 -1963 17 -1556 0 -1956 -3 -1960 -12z"/>
<path d="M1176 5433 c-15 -214 45 -457 160 -644 122 -197 276 -334 489 -435
l92 -44 1343 0 1343 0 -6 28 c-3 15 -22 97 -41 182 -67 296 -122 649 -142 908
l-7 92 -1612 0 -1612 0 -7 -87z"/>
<path d="M11496 5508 c-2 -7 -12 -94 -21 -193 -27 -284 -80 -596 -151 -890
-13 -55 -24 -103 -24 -107 0 -5 603 -8 1340 -8 l1341 0 82 37 c305 138 531
399 621 716 33 113 51 280 42 380 l-8 77 -1609 0 c-1279 0 -1610 -3 -1613 -12z"/>
<path d="M2060 3968 c0 -153 49 -358 120 -499 83 -164 251 -358 396 -456 77
-53 198 -113 292 -147 l73 -26 1113 0 c612 0 1115 3 1119 6 3 4 -32 83 -79
176 -147 294 -249 537 -354 846 l-63 182 -1308 0 -1309 0 0 -82z"/>
<path d="M11172 3895 c-103 -308 -256 -671 -387 -921 -35 -67 -61 -125 -58
-128 4 -3 507 -6 1119 -6 l1112 0 89 31 c112 40 158 63 271 139 308 206 502
547 519 913 l6 127 -1309 0 -1310 0 -52 -155z"/>
</g>
</svg>
